<?xml version="1.0" encoding="utf-8"?>
<!-- Generator: Adobe Illustrator 12.0.0, SVG Export Plug-In . SVG Version: 6.00 Build 51448)  -->
<!DOCTYPE svg PUBLIC "-//W3C//DTD SVG 1.1//EN" "http://www.w3.org/Graphics/SVG/1.1/DTD/svg11.dtd" [
	<!ENTITY ns_svg "http://www.w3.org/2000/svg">
	<!ENTITY ns_xlink "http://www.w3.org/1999/xlink">
]>

<svg version="1.1" id="Layer_1" xmlns="&ns_svg;" xmlns:xlink="&ns_xlink;" width="2865.792" height="364.296" viewBox="0 0 2865.792 364.296" overflow="visible" enable-background="new 0 0 2865.792 364.296" xml:space="preserve">
	<defs>
	  <style type="text/css">@import url(https://fonts.googleapis.com/css?family=Crimson+Text:400,400italic);</style>
	</defs>
	<style type="text/css">
		<![CDATA[
		.lexicon-title-svg {
		  fill: green;
			font-family: 'Crimson Text', serif;
			font-weight: 400;
			font-style:italic;
		}
		]]>
	</style>
	<g>
		<g>
			<path
				fill="none"
				d="M9.175,176.248c0,0,251,96.208,520.271,93.623c209.623-2.014,441.348-277.057,662.068-161.834
			c187.91,139.534,197.182,157.672,302.54,141.631c113.58-17.293,643.029-379.444,645.551-184.938
			c-1.43,125.729-71.83,273.551,20.57,291.729c84.971,16.715,12-246,167.029-296.289c95.102-30.847,533.619,115.683,533.619,115.683
			"/>
			<path stroke="none" fill="#cc9988"
				d="M2.104,183.319c84.374,32.261,174.011,53.694,262.653,69.946c83.171,15.249,167.677,23.917,252.271,23.715
			c60.123-0.145,117.131-20.352,171.372-44.695c114.397-51.346,224.262-130.45,351.952-143.916
			c29.479-3.108,59.277-1.266,88.117,5.536c14.446,3.407,28.448,8.479,42.021,14.438c19.277,8.462,35.386,22.71,52.151,35.262
			c44.857,33.579,89.065,70.468,138.296,97.622c54.571,30.103,117.848,23.213,173.663,0.048
			c78.039-32.391,152.08-74.832,227.436-112.857c79.57-40.154,161.424-82.228,248.08-104.867
			c45.254-11.824,117.541-21.162,122.229,43.203c2.32,31.886-4.346,65.622-9.498,96.96c-5.357,32.587-12.014,64.995-15.602,97.848
			c-4.451,40.744-1.49,101.67,53.332,102.732c13.334,0.258,21.645-10.233,30.197-18.889c9.338-9.447,14.365-20.369,18.107-33.052
			c11.375-38.558,13.367-79.677,21.896-118.91c4.773-21.946,11.244-43.567,20.721-63.963c4.43-9.54,9.781-18.619,15.83-27.217
			c3.436-4.884,7.279-9.466,11.305-13.871c-11.984,13.121-4.193,4.401-0.438,1.306c2.766-2.278,5.693-4.346,8.641-6.378
			c29.99-20.692,62.533-21.908,97.523-19.003c95.533,7.931,190.459,35.446,282.346,61.39
			c62.727,17.709,125.219,36.572,187.047,57.22c2.951,0.985,11.447-15.042,14.143-14.143
			c-55.291-18.464-111.137-35.387-167.143-51.539c-93.582-26.989-189.162-53.915-286.111-65.427
			c-32.814-3.896-66.059-6.333-96.77,7.765c-35.59,16.339-65.414,51.529-81.635,86.448c-18.68,40.216-24.555,85.255-31.295,128.642
			c-2.797,17.994-5.572,36.125-10.734,53.625c-1.902,6.449-4.34,12.744-7.561,18.654c-1.52,2.786-3.363,5.399-5.439,7.797
			c15.475-17.869,11.301-9.815,3.734-6.518c-14.865,6.482-34.922-2.529-46.061-12.236c-17.055-14.863-19.266-40.526-19.199-61.574
			c0.197-65.836,21.645-130.459,26.186-196.089c1.859-26.862,1.145-57.078-25.994-70.885c-23.701-12.059-54.479-7.021-79.27-1.885
			c-85.133,17.635-166.17,59.758-243.402,98.176c-78.189,38.895-154.637,81.885-234.477,117.373
			c-53.764,23.896-116.492,38.404-172.667,13.473c-44.93-19.942-84.533-53.641-123.553-82.847
			c-30.661-22.951-59.835-49.403-95.856-63.296c-28.003-10.801-57.969-15.516-87.894-15.665
			c-61.5-0.308-121.392,20.853-176.971,45.322c-59.804,26.33-116.757,58.623-175.534,87.085
			c-53.828,26.066-110.492,49.924-170.478,56.32c-38.958,4.153-79.414,0.977-118.379-1.655
			c-41.893-2.83-83.622-7.888-125.099-14.366c-101.25-15.816-204.087-39.605-300.051-76.3
			C13.579,168.157,4.514,184.241,2.104,183.319L2.104,183.319z"/>
		</g>
	</g>

</svg>
