
<svg xmlns="http://www.w3.org/2000/svg" version="1.1" xmlns:xlink="http://www.w3.org/1999/xlink" preserveAspectRatio="none" x="0px" y="0px" width="690px" height="650px" viewBox="0 0 690 650">

<defs>
  <style type="text/css">
 <![CDATA[

 .ramp{
  fill: lightgrey;
  stroke:#000033;
  opacity:0.5;
  }
  .top-ramp{
  opacity:0.5;
  }
  .ramp1{
  fill:lightgrey;
  opacity:0.7;
  }

 ]]>
 </style>


<g id="Layer1_0_FILL">
<path class="ramp" stroke="red1" d="
M 429.3 -6.4
L 348.1 -53.25 348.1 192.6 687.65 388.65
Q 494.2 272.4 429.3 -6.4
M 433.1 -8.6
L 429.3 -6.4
Q 494.2 272.4 687.65 388.65
L 691.45 386.45
Q 498.0126953125 270.183984375 433.1 -8.6
M 351.9 -55.45
L 348.1 -53.25 429.3 -6.4 433.1 -8.6 351.9 -55.45 Z"/>
</g>

<g id="Layer1_1_FILL">
<path class="ramp" d="
M 187.4 46.85
L 180.55 42.95 180.55 56.45 187.4 60.35 187.4 46.85
M 354.95 -49.35
L 348.1 -53.25 180.55 42.95 187.4 46.85 354.95 -49.35
M 354.95 -35.85
L 354.95 -49.35 187.4 46.85 187.4 60.35 354.95 -35.85 Z"/>
</g>

<g id="Layer1_2_FILL">
<path class="ramp" d="
M 261.75 89.85
L 261.8 97.75 429.35 1.55 429.3 -6.35 261.75 89.85
M 250.1 91
L 261.8 97.75 261.75 89.85 250.05 83.1 250.1 91
M 429.3 -6.35
L 417.6 -13.1 250.05 83.1 261.75 89.85 429.3 -6.35 Z"/>
</g>

<g id="Layer1_3_FILL">
<path class="ramp" d="
M 271.7 129
L 269.65 121.3 257.95 116.75 260 124.45 271.7 129
M 437.15 25.1
L 425.5 20.55 257.95 116.75 269.65 121.3 437.15 25.1
M 439.25 32.8
L 437.15 25.1 269.65 121.3 271.7 129 439.25 32.8 Z"/>
</g>

<g id="Layer1_4_FILL">
<path class="ramp" d="
M 268 155.9
L 280.45 158.4 278 150.9 265.55 148.4 268 155.9
M 445.55 54.7
L 433.1 52.2 265.55 148.4 278 150.9 445.55 54.7
M 448 62.2
L 445.55 54.7 278 150.9 280.45 158.4 448 62.2 Z"/>
</g>

<g id="Layer1_5_FILL">
<path class="ramp" d="
M 275.1 180.55
L 277.75 187.9 290.45 188.25 287.8 180.9 275.1 180.55
M 455.35 84.7
L 442.65 84.35 275.1 180.55 287.8 180.9 455.35 84.7
M 458 92.05
L 455.35 84.7 287.8 180.9 290.45 188.25 458 92.05 Z"/>
</g>

<g id="Layer1_6_FILL">
<path class="ramp" d="
M 302.35 219.45
L 299.45 212.2 286.8 211.85 289.7 219.1 302.35 219.45
M 467 116
L 454.35 115.65 286.8 211.85 299.45 212.2 467 116
M 469.9 123.25
L 467 116 299.45 212.2 302.35 219.45 469.9 123.25 Z"/>
</g>

<g id="Layer1_7_FILL">
<path class="ramp" d="
M 312.4 242.75
L 299.9 244.55 303.05 251.65 315.55 249.85 312.4 242.75
M 483.1 153.65
L 479.9 146.55 312.4 242.75 315.55 249.85 483.1 153.65
M 479.9 146.55
L 467.45 148.35 299.9 244.55 312.4 242.75 479.9 146.55 Z"/>
</g>

<g id="Layer1_8_FILL">
<path class="ramp" d="
M 330.35 279.55
L 326.7 272.7 315.55 278.7 319.2 285.55 330.35 279.55
M 497.85 183.35
L 494.25 176.5 326.7 272.7 330.35 279.55 497.85 183.35 Z"/>
</g>

<g id="Layer1_9_FILL">
<path class="ramp" d="
M 343.4 302.8
L 347.25 309.55 514.7 213.4 510.85 206.65 343.4 302.8
M 347.25 309.55
L 337.45 317.2 504.9 221.1 514.7 213.4 347.25 309.55
M 343.4 302.8
L 333.6 310.5 337.45 317.2 347.25 309.55 343.4 302.8 Z"/>
</g>

<g id="Layer1_10_FILL">
<path class="ramp" d="
M 365.05 337.85
L 356.8 347.1 524.5 251.05 532.9 241.65 365.35 337.85 532.9 241.65 528.4 235.25 360.65 331.6 365.05 337.85
M 360.65 331.6
L 352.25 341 356.8 347.1 365.05 337.85 360.65 331.6 Z"/>
</g>

<g id="Layer1_11_FILL">
<path class="ramp" d="
M 380.15 358.45
L 384.95 364.7 552.5 268.45 547.7 262.25 380.15 358.45
M 384.95 364.7
L 378.4 375.3 545.9 279.15 552.5 268.45 384.95 364.7
M 373.6 369.05
L 378.4 375.3 384.95 364.7 380.15 358.45 373.6 369.05 Z"/>
</g>

<g id="Layer1_12_FILL">
<path class="ramp" d="
M 568.6 306.15
L 573.55 293.8 406.1 389.95 401.1 402.2 568.6 306.15
M 400.8 384.15
L 406.1 389.95 573.55 293.8 573.55 293.8 568.3 288 400.8 384.15
M 406.1 389.95
L 400.8 384.15 395.85 396.45 401.1 402.2 406.1 389.95 Z"/>
</g>

<g id="Layer1_13_FILL">
<path class="ramp" d="
M 428.3 413.4
L 422.85 407.9 420.1 420.9 425.55 426.4 428.3 413.4
M 593.05 330.3
L 595.8 317.3 428.3 413.4 425.55 426.4 593.05 330.3
M 595.8 317.3
L 590.35 311.8 422.85 407.9 428.3 413.4 595.8 317.3 Z"/>
</g>

<g id="Layer1_14_FILL">
<path class="ramp" d="
M 448.8 451.6
L 460.5 458.35 460.45 450.45 448.75 443.7 448.8 451.6
M 628 354.25
L 616.3 347.5 448.75 443.7 460.45 450.45 628 354.25
M 628.05 362.15
L 628 354.25 460.45 450.45 460.5 458.35 628.05 362.15 Z"/>
</g>

<g id="Layer1_15_FILL">
<path class="ramp" d="
M 257.95 92.05
L 176.75 45.15 176.75 291 516.3 487.05
Q 322.85 370.8 257.95 92.05
M 261.75 89.85
L 257.95 92.05
Q 322.85 370.8 516.3 487.05
L 520.1 484.85
Q 326.65 368.6 261.75 89.85
M 257.95 92.05
L 261.75 89.85 180.55 42.95 176.75 45.15 257.95 92.05 Z"/>
</g>

<g id="Layer1_16_FILL">
<path class="ramp" stroke="none" d="
M 16.05 145.25
L 9.2 141.35 9.2 154.85 16.05 158.75 16.05 145.25
M 183.6 62.55
L 183.6 49.05 16.05 145.25 16.05 158.75 183.6 62.55
M 183.6 49.05
L 176.75 45.15 9.2 141.35 16.05 145.25 183.6 49.05 Z"/>
</g>

<g id="Layer1_17_FILL">
<path class="ramp" d="
M 78.7 181.5
L 78.75 189.4 90.45 196.15 90.4 188.25 78.7 181.5
M 258 99.95
L 257.95 92.05 90.4 188.25 90.45 196.15 258 99.95
M 257.95 92.05
L 246.25 85.3 78.7 181.5 90.4 188.25 257.95 92.05 Z"/>
</g>

<g id="Layer1_18_FILL">
<path class="ramp" d="
M 100.35 227.4
L 98.3 219.7 86.6 215.15 88.65 222.85 100.35 227.4
M 265.85 123.5
L 254.15 118.95 86.6 215.15 98.3 219.7 265.85 123.5
M 267.9 131.2
L 265.85 123.5 98.3 219.7 100.35 227.4 267.9 131.2 Z"/>
</g>

<g id="Layer1_19_FILL">
<path class="ramp" d="
M 96.65 254.3
L 109.1 256.8 106.65 249.3 94.2 246.8 96.65 254.3
M 276.65 160.6
L 274.2 153.1 106.65 249.3 109.1 256.8 276.65 160.6
M 274.2 153.1
L 261.75 150.6 94.2 246.8 106.65 249.3 274.2 153.1 Z"/>
</g>

<g id="Layer1_20_FILL">
<path class="ramp" d="
M 116.45 279.3
L 103.75 278.95 106.4 286.3 119.1 286.65 116.45 279.3
M 284 183.1
L 271.3 182.75 103.75 278.95 116.45 279.3 284 183.1
M 286.65 190.45
L 284 183.1 116.45 279.3 119.1 286.65 286.65 190.45 Z"/>
</g>

<g id="Layer1_21_FILL">
<path class="ramp" d="
M 115.45 310.25
L 128.1 310.6 295.65 214.4 283 214.05 115.45 310.25
M 131 317.85
L 128.1 310.6 115.45 310.25 118.35 317.5 131 317.85
M 128.1 310.6
L 131 317.85 298.55 221.65 295.65 214.4 128.1 310.6 Z"/>
</g>

<g id="Layer1_22_FILL">
<path class="ramp" d="
M 141.05 341.15
L 144.2 348.25 311.75 252.05 308.6 244.95 141.05 341.15
M 141.05 341.15
L 128.55 342.95 131.7 350.05 144.2 348.25 141.05 341.15
M 128.55 342.95
L 141.05 341.15 308.6 244.95 296.1 246.75 128.55 342.95 Z"/>
</g>

<g id="Layer1_23_FILL">
<path class="ramp" d="
M 155.35 371.1
L 159 377.95 326.55 281.75 322.9 274.9 155.35 371.1
M 147.85 383.95
L 159 377.95 155.35 371.1 144.2 377.1 147.85 383.95 Z"/>
</g>

<g id="Layer1_24_FILL">
<path class="ramp" d="
M 162.25 408.9
L 166.15 415.65 175.9 407.95 172.05 401.2 162.25 408.9
M 333.55 319.5
L 343.35 311.8 175.9 407.95 166.15 415.65 333.55 319.5
M 343.35 311.8
L 339.5 305.05 172.05 401.2 175.9 407.95 343.35 311.8 Z"/>
</g>

<g id="Layer1_25_FILL">
<path class="ramp" d="
M 193.7 436.25
L 189.3 430 180.9 439.4 185.45 445.5 193.7 436.25
M 361.55 340.05
L 357.05 333.65 189.3 430 193.7 436.25 185.45 445.5 353.15 349.45 361.55 340.05 194 436.25 361.55 340.05 Z"/>
</g>

<g id="Layer1_26_FILL">
<path class="ramp" d="
M 207.05 473.7
L 213.6 463.1 208.8 456.85 202.25 467.45 207.05 473.7
M 374.55 377.55
L 381.15 366.9 213.6 463.1 207.05 473.7 374.55 377.55
M 381.15 366.9
L 376.35 360.65 208.8 456.85 213.6 463.1 381.15 366.9 Z"/>
</g>

<g id="Layer1_27_FILL">
<path class="ramp" d="
M 277.4 542.1
L 289.1 548.85 456.65 452.65 444.95 445.9 277.4 542.1
M 289.15 556.75
L 289.1 548.85 277.4 542.1 277.45 550 289.15 556.75
M 289.1 548.85
L 289.15 556.75 456.7 460.55 456.65 452.65 289.1 548.85 Z"/>
</g>

<g id="Layer1_28_FILL">
<path class="ramp" d="
M 234.75 488.35
L 229.8 500.65 397.25 404.55 402.2 392.25 234.75 488.35
M 229.45 482.55
L 224.5 494.85 229.8 500.65 234.75 488.35 229.45 482.55
M 402.25 392.2
L 396.95 386.4 229.45 482.55 234.75 488.35 402.2 392.25 402.25 392.2 Z"/>
</g>

<g id="Layer1_29_FILL">
<path class="ramp" d="
M 256.95 511.8
L 254.2 524.8 421.7 428.7 424.45 415.7 256.95 511.8
M 256.95 511.8
L 251.5 506.3 248.75 519.3 254.2 524.8 256.95 511.8
M 251.5 506.3
L 256.95 511.8 424.45 415.7 419 410.2 251.5 506.3 Z"/>
</g>
<!-- Front end of ramp -->
<g id="Layer1_30_FILL" >
<path class="ramp1" stroke="#000033" fill="red" d="
M 86.6 190.45
L 5.4 143.55 5.4 389.4 344.95 585.45
Q 151.5 469.2 86.6 190.45
M 90.4 188.25
L 86.6 190.45
Q 151.5 469.2 344.95 585.45
L 348.75 583.25
Q 155.3 467 90.4 188.25
M 9.2 141.35
L 5.4 143.55 86.6 190.45 90.4 188.25 9.2 141.35 Z"/>
</g>
<!-- Top of ramp -->
<g id="Layer0_0_FILL">
<path class="ramp" d="
M 433.1 -8.55
L 351.9 -55.45 5.4 143.55 86.6 190.45 433.1 -8.55 Z"/>
</g>

<g id="Symbol_1_0_Layer0_0_FILL">
<path class="ramp" d="
M 171.35 0
L 0 98.4
Q 64.9 377.15 258.35 493.4
L 429.7 395
Q 236.25 278.75 171.35 0 Z"/>
</g>

<g id="Symbol_2_0_Layer0_0_FILL">
<path class="ramp" d="
M 171.35 0
L 0 98.4
Q 64.9 377.15 258.35 493.4
L 429.7 395
Q 236.25 278.75 171.35 0 Z"/>
</g>


</defs>

<g transform="matrix( 1, 0, 0, 1, -4,63) ">
  <use xlink:href="#Layer1_0_FILL"/>
</g>

<g transform="matrix( 1, 0, 0, 1, -4,63) ">
<use xlink:href="#Layer1_1_FILL"/>
</g>

<g transform="matrix( 1, 0, 0, 1, -4,63) ">
<use xlink:href="#Layer1_2_FILL"/>
</g>

<g transform="matrix( 1, 0, 0, 1, -4,63) ">
<use xlink:href="#Layer1_3_FILL"/>
</g>

<g transform="matrix( 1, 0, 0, 1, -4,63) ">
<use xlink:href="#Layer1_4_FILL"/>
</g>

<g transform="matrix( 1, 0, 0, 1, -4,63) ">
<use xlink:href="#Layer1_5_FILL"/>
</g>

<g transform="matrix( 1, 0, 0, 1, -4,63) ">
<use xlink:href="#Layer1_6_FILL"/>
</g>

<g transform="matrix( 1, 0, 0, 1, -4,63) ">
<use xlink:href="#Layer1_7_FILL"/>
</g>

<g transform="matrix( 1, 0, 0, 1, -4,63) ">
<use xlink:href="#Layer1_8_FILL"/>
</g>

<g transform="matrix( 1, 0, 0, 1, -4,63) ">
<use xlink:href="#Layer1_9_FILL"/>
</g>

<g transform="matrix( 1, 0, 0, 1, -4,63) ">
<use xlink:href="#Layer1_10_FILL"/>
</g>

<g transform="matrix( 1, 0, 0, 1, -4,63) ">
<use xlink:href="#Layer1_11_FILL"/>
</g>

<g transform="matrix( 1, 0, 0, 1, -4,63) ">
<use xlink:href="#Layer1_12_FILL"/>
</g>

<g transform="matrix( 1, 0, 0, 1, -4,63) ">
<use xlink:href="#Layer1_13_FILL"/>
</g>

<g transform="matrix( 1, 0, 0, 1, -4,63) ">
<use xlink:href="#Layer1_14_FILL"/>
</g>

<g transform="matrix( 1, 0, 0, 1, -4,63) ">
<use xlink:href="#Layer1_15_FILL"/>
</g>

<g transform="matrix( 1, 0, 0, 1, -4,63) ">
<use xlink:href="#Layer1_16_FILL"/>
</g>

<g transform="matrix( 1, 0, 0, 1, -4,63) ">
<use xlink:href="#Layer1_17_FILL"/>
</g>

<g transform="matrix( 1, 0, 0, 1, -4,63) ">
<use xlink:href="#Layer1_18_FILL"/>
</g>

<g transform="matrix( 1, 0, 0, 1, -4,63) ">
<use xlink:href="#Layer1_19_FILL"/>
</g>

<g transform="matrix( 1, 0, 0, 1, -4,63) ">
<use xlink:href="#Layer1_20_FILL"/>
</g>

<g transform="matrix( 1, 0, 0, 1, -4,63) ">
<use xlink:href="#Layer1_21_FILL"/>

<use xlink:href="#Layer1_21_1_STROKES"/>
</g>

<g transform="matrix( 1, 0, 0, 1, -4,63) ">
<use xlink:href="#Layer1_22_FILL"/>
</g>

<g transform="matrix( 1, 0, 0, 1, -4,63) ">
<use xlink:href="#Layer1_23_FILL"/>
</g>

<g transform="matrix( 1, 0, 0, 1, -4,63) ">
<use xlink:href="#Layer1_24_FILL"/>
</g>

<g transform="matrix( 1, 0, 0, 1, -4,63) ">
<use xlink:href="#Layer1_25_FILL"/>
</g>

<g transform="matrix( 1, 0, 0, 1, -4,63) ">
<use xlink:href="#Layer1_26_FILL"/>
</g>

<g transform="matrix( 1, 0, 0, 1, -4,63) ">
  <use xlink:href="#Layer1_27_FILL"/>
</g>

<g transform="matrix( 1, 0, 0, 1, -4,63) ">
  <use xlink:href="#Layer1_28_FILL"/>
</g>

<g transform="matrix( 1, 0, 0, 1, -4,63) ">
  <use xlink:href="#Layer1_29_FILL"/>
</g>

<g transform="matrix( 1, 0, 0, 1, -4,63) ">
  <use xlink:href="#Layer1_30_FILL"/>
</g>

<g transform="matrix( 1, 0, 0, 1, -4,63) ">
  <use xlink:href="#Layer0_0_FILL"/>
</g>

<g class="top-ramp" transform="matrix( 1, 0, 0, 1, 257.75,54.45) ">
  <use  xlink:href="#Symbol_1_0_Layer0_0_FILL"/>
</g>

<g class="top-ramp" transform="matrix( 1, 0, 0, 1, 82.6,155.05) ">
  <use  xlink:href="#Symbol_2_0_Layer0_0_FILL"/>
</g>
</svg>
